<svg width="32" height="32" viewBox="0 0 32 32" fill="none" xmlns="http://www.w3.org/2000/svg">
<path d="M0 16C0 7.16344 7.16344 0 16 0C24.8366 0 32 7.16344 32 16C32 24.8366 24.8366 32 16 32C7.16344 32 0 24.8366 0 16Z" fill="#9195A6"/>
<path d="M11.3744 20.3C10.8798 20.3 10.4206 20.2307 9.99671 20.0922C9.57281 19.9537 9.21564 19.7459 8.92519 19.4689C8.63474 19.1919 8.42672 18.8456 8.30112 18.43C8.18337 18.0144 8.16767 17.5296 8.25402 16.9756C8.31682 16.6252 8.38354 16.2748 8.45419 15.9244C8.53269 15.5741 8.61119 15.2196 8.68969 14.8611C8.94874 13.7611 9.41581 12.9259 10.0909 12.3556C10.766 11.7852 11.6766 11.5 12.8227 11.5C13.3173 11.5 13.7726 11.5733 14.1886 11.72C14.6125 11.8585 14.9697 12.0704 15.2601 12.3556C15.5584 12.6407 15.7664 12.9911 15.8842 13.4067C16.0098 13.8222 16.0255 14.307 15.9313 14.8611C15.8763 15.2196 15.8096 15.5741 15.7311 15.9244C15.6605 16.2748 15.5859 16.6252 15.5074 16.9756C15.2405 18.0919 14.7695 18.927 14.0944 19.4811C13.4193 20.027 12.5126 20.3 11.3744 20.3ZM11.5275 18.54C11.9514 18.54 12.3242 18.4096 12.6461 18.1489C12.9679 17.8881 13.1956 17.4726 13.329 16.9022C13.4154 16.5437 13.49 16.2056 13.5528 15.8878C13.6234 15.57 13.6862 15.24 13.7412 14.8978C13.8432 14.3274 13.7961 13.9119 13.5999 13.6511C13.4036 13.3904 13.0935 13.26 12.6696 13.26C12.2457 13.26 11.8729 13.3904 11.551 13.6511C11.237 13.9119 11.0133 14.3274 10.8798 14.8978C10.7935 15.24 10.715 15.57 10.6443 15.8878C10.5815 16.2056 10.5187 16.5437 10.4559 16.9022C10.3617 17.4726 10.4088 17.8881 10.5972 18.1489C10.7856 18.4096 11.0957 18.54 11.5275 18.54Z" fill="#FBFCFE"/>
<path d="M16.7306 20.1778C16.6521 20.1778 16.5893 20.1493 16.5422 20.0922C16.4951 20.0352 16.4794 19.9619 16.4951 19.8722L18.12 11.9278C18.1357 11.8381 18.1789 11.7648 18.2495 11.7078C18.3202 11.6507 18.3948 11.6222 18.4733 11.6222H21.6054C22.0842 11.6222 22.516 11.6793 22.9006 11.7933C23.2931 11.9074 23.6189 12.0826 23.878 12.3189C24.137 12.5552 24.3176 12.8526 24.4196 13.2111C24.5217 13.5615 24.5256 13.973 24.4314 14.4456C24.2351 15.3826 23.8348 16.0752 23.2303 16.5233C22.6337 16.9715 21.8291 17.1956 20.8165 17.1956H19.2269L18.6852 19.8722C18.6695 19.9619 18.6263 20.0352 18.5557 20.0922C18.4929 20.1493 18.4183 20.1778 18.332 20.1778H16.7306ZM19.533 15.5089H20.8871C21.209 15.5089 21.4955 15.4193 21.7467 15.24C22.0057 15.0607 22.1745 14.7878 22.253 14.4211C22.2923 14.2093 22.3001 14.0219 22.2766 13.8589C22.253 13.6959 22.1706 13.5656 22.0293 13.4678C21.8958 13.37 21.6878 13.3211 21.4052 13.3211H19.9922L19.533 15.5089Z" fill="#FBFCFE"/>
</svg>